<svg xmlns="http://www.w3.org/2000/svg" xmlns:xlink="http://www.w3.org/1999/xlink" width="500" zoomAndPan="magnify" viewBox="0 0 375 374.999991" height="500" preserveAspectRatio="xMidYMid meet" version="1.0"><defs><g/><clipPath id="880247e2df"><path d="M 252.882812 187.5 L 310.632812 187.5 L 310.632812 231.75 L 252.882812 231.75 Z M 252.882812 187.5 " clip-rule="nonzero"/></clipPath></defs><rect x="-37.5" width="450" fill="#ffffff" y="-37.499999" height="449.999989" fill-opacity="1"/><rect x="-37.5" width="450" fill="#e2e2e2" y="-37.499999" height="449.999989" fill-opacity="1"/><g clip-path="url(#880247e2df)"><path fill="#231f20" d="M 309.90625 210.855469 C 309.480469 209.875 309.074219 208.894531 308.648438 207.914062 C 307.820312 205.992188 306.992188 204.050781 306.160156 202.128906 C 305.492188 200.589844 304.84375 198.988281 303.449219 197.949219 C 300.65625 195.925781 296.726562 197.128906 293.671875 197.789062 C 293.144531 197.910156 292.617188 198.007812 292.09375 198.128906 C 292.070312 198.046875 292.050781 197.988281 292.03125 197.910156 C 291.992188 197.789062 291.972656 197.6875 291.929688 197.566406 C 291.890625 197.386719 291.871094 197.089844 291.6875 196.96875 C 291.585938 196.886719 291.445312 196.867188 291.304688 196.847656 C 290.835938 195.207031 289.078125 194.144531 287.355469 194.507812 C 286.242188 194.746094 285.269531 195.445312 284.179688 195.789062 C 282.964844 196.167969 281.667969 196.425781 280.414062 196.6875 C 277.84375 197.207031 275.210938 197.667969 272.597656 197.847656 C 270.351562 198.007812 267.78125 197.789062 266.164062 196.027344 C 264.28125 193.964844 264.664062 190.925781 265.941406 188.664062 C 266.265625 188.082031 265.375 187.5625 265.050781 188.144531 C 263.957031 190.082031 263.429688 192.40625 264.160156 194.546875 C 264.886719 196.667969 266.566406 198.070312 268.691406 198.628906 C 271.101562 199.269531 273.671875 198.828125 276.082031 198.488281 C 278.734375 198.109375 281.425781 197.648438 283.996094 196.929688 C 284.644531 196.746094 285.292969 196.507812 285.898438 196.226562 C 286.503906 195.945312 287.113281 195.585938 287.78125 195.488281 C 288.953125 195.308594 290.007812 196.128906 290.3125 197.207031 C 289.945312 197.566406 289.886719 198.109375 290.089844 198.570312 C 287.195312 199.210938 284.320312 199.910156 281.445312 200.628906 C 272.558594 202.890625 263.714844 205.511719 254.988281 208.472656 C 254.808594 208.433594 254.585938 208.472656 254.402344 208.65625 C 253.25 209.855469 252.882812 211.496094 252.902344 213.136719 C 252.925781 215.058594 253.328125 217 253.773438 218.839844 C 254.28125 220.921875 254.929688 222.960938 255.636719 224.984375 C 255.980469 225.964844 256.324219 226.964844 256.6875 227.945312 C 256.992188 228.785156 257.355469 229.625 258.003906 230.265625 C 259.039062 231.289062 260.515625 231.6875 261.910156 231.449219 C 261.992188 231.46875 262.09375 231.46875 262.195312 231.449219 C 270.394531 229.546875 278.46875 227.203125 286.464844 224.664062 C 290.472656 223.382812 294.460938 222.082031 298.449219 220.742188 C 300.351562 220.101562 302.273438 219.460938 304.175781 218.800781 C 305.65625 218.300781 307.191406 217.820312 308.488281 216.898438 C 309.621094 216.097656 310.492188 214.976562 310.574219 213.558594 C 310.632812 212.597656 310.269531 211.695312 309.90625 210.855469 Z M 291.382812 197.46875 C 291.445312 197.726562 291.527344 197.96875 291.585938 198.230469 C 291.585938 198.230469 291.585938 198.25 291.585938 198.25 C 291.546875 198.269531 291.484375 198.269531 291.445312 198.289062 C 291.425781 198.070312 291.382812 197.867188 291.28125 197.667969 C 291.324219 197.609375 291.363281 197.546875 291.382812 197.46875 Z M 309.277344 213.539062 C 309.238281 214.238281 308.871094 214.859375 308.367188 215.339844 C 307.394531 216.277344 306.058594 216.800781 304.804688 217.238281 C 302.902344 217.898438 300.976562 218.539062 299.074219 219.179688 C 295.332031 220.441406 291.585938 221.683594 287.820312 222.902344 C 279.542969 225.5625 271.203125 228.023438 262.722656 230.027344 C 262.601562 230.007812 262.457031 230.007812 262.316406 230.066406 C 261.527344 230.386719 260.597656 230.347656 259.828125 230.007812 C 258.875 229.585938 258.390625 228.785156 258.023438 227.867188 C 257.195312 225.722656 256.445312 223.542969 255.777344 221.339844 C 255.109375 219.160156 254.5625 216.9375 254.28125 214.699219 C 254.078125 213.078125 254.015625 211.15625 255.109375 209.816406 C 262.578125 207.234375 270.109375 204.953125 277.71875 202.929688 C 281.585938 201.910156 285.472656 200.949219 289.378906 200.050781 C 291.242188 199.628906 293.125 199.210938 295.007812 198.808594 C 296.667969 198.46875 298.347656 198.046875 300.066406 198.148438 C 301.769531 198.230469 303.125 199.007812 303.996094 200.488281 C 304.886719 202.011719 305.472656 203.710938 306.160156 205.3125 C 306.949219 207.171875 307.757812 209.015625 308.550781 210.875 C 308.871094 211.714844 309.339844 212.617188 309.277344 213.539062 Z M 309.277344 213.539062 " fill-opacity="1" fill-rule="nonzero"/></g><path fill="#231f20" d="M 285.070312 205.59375 L 256.769531 214.136719 L 260.414062 227.226562 L 288.507812 218.339844 Z M 287.113281 215.660156 L 266.425781 221.921875 C 266.265625 221.339844 266.082031 220.703125 265.898438 220 L 286.628906 213.898438 Z M 264.664062 217.917969 C 264.804688 218.421875 264.949219 218.980469 265.109375 219.582031 L 262.640625 220.300781 C 262.5 219.800781 262.355469 219.242188 262.195312 218.660156 Z M 262.03125 218.039062 C 261.851562 217.378906 261.667969 216.699219 261.507812 216.058594 L 263.957031 215.339844 C 264.097656 215.878906 264.28125 216.539062 264.503906 217.300781 Z M 265.109375 217.121094 C 264.929688 216.4375 264.746094 215.757812 264.5625 215.15625 L 266.585938 214.558594 C 266.730469 215.097656 266.910156 215.757812 267.113281 216.519531 Z M 267.277344 217.140625 C 267.417969 217.640625 267.558594 218.199219 267.722656 218.820312 L 265.738281 219.402344 C 265.597656 218.859375 265.433594 218.300781 265.292969 217.738281 Z M 277.984375 213.21875 C 277.800781 212.578125 277.640625 211.917969 277.476562 211.296875 L 279.722656 210.636719 C 279.867188 211.175781 280.027344 211.796875 280.230469 212.535156 Z M 280.414062 213.15625 C 280.554688 213.699219 280.714844 214.277344 280.878906 214.917969 L 278.632812 215.578125 C 278.488281 215.058594 278.328125 214.457031 278.164062 213.835938 Z M 277.539062 214.039062 C 277.679688 214.558594 277.84375 215.136719 278.003906 215.777344 L 275.898438 216.398438 C 275.757812 215.878906 275.59375 215.296875 275.433594 214.679688 Z M 275.269531 214.039062 C 275.089844 213.398438 274.925781 212.738281 274.746094 212.117188 L 276.851562 211.496094 C 276.992188 212.035156 277.175781 212.675781 277.355469 213.417969 Z M 274.804688 214.859375 C 274.949219 215.378906 275.109375 215.957031 275.269531 216.578125 L 273.390625 217.140625 C 273.246094 216.617188 273.085938 216.039062 272.921875 215.417969 Z M 272.78125 214.796875 C 272.597656 214.136719 272.4375 213.476562 272.253906 212.855469 L 274.136719 212.296875 C 274.28125 212.835938 274.460938 213.476562 274.664062 214.21875 Z M 272.316406 215.597656 C 272.457031 216.117188 272.597656 216.679688 272.78125 217.300781 L 270.878906 217.859375 C 270.738281 217.359375 270.59375 216.777344 270.414062 216.160156 Z M 270.25 215.558594 C 270.070312 214.898438 269.886719 214.238281 269.726562 213.617188 L 271.628906 213.058594 C 271.769531 213.597656 271.953125 214.238281 272.152344 214.996094 Z M 269.804688 216.359375 C 269.949219 216.878906 270.089844 217.4375 270.25 218.039062 L 268.347656 218.601562 C 268.207031 218.101562 268.066406 217.519531 267.902344 216.917969 Z M 267.742188 216.320312 C 267.558594 215.660156 267.378906 214.996094 267.214844 214.359375 L 269.117188 213.796875 C 269.257812 214.335938 269.441406 214.976562 269.644531 215.738281 Z M 286.464844 213.277344 L 281.484375 214.738281 C 281.34375 214.21875 281.183594 213.597656 281.019531 212.976562 L 285.980469 211.476562 Z M 285.816406 210.855469 L 280.859375 212.355469 C 280.675781 211.714844 280.515625 211.054688 280.351562 210.457031 L 285.3125 208.972656 Z M 284.625 206.394531 L 285.148438 208.355469 L 280.191406 209.835938 C 279.96875 209.015625 279.785156 208.3125 279.664062 207.894531 Z M 279.035156 208.074219 C 279.117188 208.414062 279.277344 208.996094 279.5625 210.015625 L 277.316406 210.675781 C 277.09375 209.855469 276.910156 209.175781 276.789062 208.734375 Z M 276.183594 208.933594 C 276.285156 209.292969 276.425781 209.875 276.707031 210.875 L 274.601562 211.496094 C 274.378906 210.695312 274.199219 210.015625 274.078125 209.574219 Z M 273.449219 209.773438 C 273.550781 210.136719 273.710938 210.734375 273.957031 211.695312 L 272.074219 212.257812 C 271.851562 211.457031 271.667969 210.777344 271.566406 210.335938 Z M 270.960938 210.515625 C 271.0625 210.855469 271.203125 211.457031 271.464844 212.4375 L 269.5625 212.996094 C 269.339844 212.195312 269.160156 211.515625 269.058594 211.097656 Z M 268.449219 211.277344 C 268.550781 211.636719 268.691406 212.214844 268.957031 213.175781 L 267.054688 213.738281 C 266.832031 212.9375 266.648438 212.257812 266.546875 211.835938 Z M 265.917969 212.035156 C 266.019531 212.375 266.164062 212.957031 266.425781 213.9375 L 264.402344 214.539062 C 264.179688 213.71875 263.996094 213.058594 263.875 212.65625 Z M 263.269531 212.835938 C 263.347656 213.15625 263.511719 213.738281 263.773438 214.71875 L 261.34375 215.4375 C 261.140625 214.65625 260.960938 213.996094 260.839844 213.558594 Z M 257.558594 214.558594 L 260.210938 213.757812 C 260.3125 214.117188 260.453125 214.679688 260.71875 215.636719 L 258.085938 216.417969 Z M 258.246094 217.039062 L 260.878906 216.257812 C 261.019531 216.820312 261.203125 217.460938 261.40625 218.238281 L 258.792969 219.019531 Z M 258.976562 219.640625 L 261.585938 218.859375 C 261.730469 219.359375 261.871094 219.902344 262.03125 220.5 L 259.441406 221.261719 Z M 259.605469 221.863281 L 265.292969 220.179688 C 265.453125 220.78125 265.636719 221.421875 265.820312 222.101562 L 260.152344 223.824219 Z M 260.859375 226.40625 L 260.3125 224.441406 L 263.226562 223.5625 L 263.773438 225.484375 Z M 264.402344 225.285156 L 263.855469 223.363281 L 265.414062 222.902344 L 265.960938 224.804688 Z M 266.546875 224.601562 L 266 222.722656 L 267.742188 222.203125 L 268.269531 224.0625 Z M 268.894531 223.863281 L 268.367188 222.003906 L 281.992188 217.878906 L 282.476562 219.5625 Z M 283.085938 219.378906 L 282.597656 217.699219 L 284.746094 217.058594 L 285.210938 218.71875 Z M 285.390625 216.859375 L 287.296875 216.277344 L 287.742188 217.898438 L 285.859375 218.5 Z M 285.390625 216.859375 " fill-opacity="1" fill-rule="nonzero"/><path fill="#231f20" d="M 297.679688 215.5 L 306.707031 212.535156 L 302.539062 201.128906 L 293.589844 203.269531 Z M 295.289062 206.351562 L 297.78125 205.734375 C 298.0625 206.613281 298.386719 207.652344 298.730469 208.714844 L 296.28125 209.316406 L 296.324219 209.476562 Z M 299.378906 208.554688 C 299.378906 208.535156 299.378906 208.535156 299.359375 208.515625 C 299.035156 207.472656 298.691406 206.453125 298.40625 205.550781 L 300.855469 204.933594 C 301.140625 205.8125 301.484375 206.851562 301.808594 207.914062 Z M 302.03125 208.554688 C 302.234375 209.195312 302.4375 209.835938 302.636719 210.433594 L 300.210938 211.136719 C 300.007812 210.515625 299.804688 209.835938 299.582031 209.15625 Z M 296.503906 209.933594 L 298.953125 209.335938 C 299.175781 210.015625 299.398438 210.695312 299.601562 211.335938 L 297.214844 212.035156 Z M 298.082031 214.679688 L 297.394531 212.636719 L 299.785156 211.9375 C 300.027344 212.675781 300.230469 213.355469 300.410156 213.898438 Z M 301.019531 213.71875 C 300.898438 213.335938 300.675781 212.636719 300.390625 211.777344 L 302.820312 211.074219 C 303.042969 211.777344 303.246094 212.417969 303.40625 212.9375 Z M 305.855469 212.136719 L 304.035156 212.738281 C 303.914062 212.335938 303.691406 211.695312 303.449219 210.894531 L 305.210938 210.375 Z M 304.988281 209.753906 L 303.246094 210.253906 C 303.0625 209.675781 302.859375 209.035156 302.636719 208.394531 L 304.320312 207.972656 Z M 304.117188 207.375 L 302.457031 207.792969 C 302.4375 207.734375 302.414062 207.695312 302.414062 207.632812 C 302.09375 206.652344 301.789062 205.652344 301.503906 204.8125 L 303.042969 204.433594 Z M 302.113281 201.890625 L 302.820312 203.8125 L 301.300781 204.191406 C 301.261719 204.070312 301.222656 203.972656 301.203125 203.851562 C 301.039062 203.332031 300.898438 202.910156 300.796875 202.609375 C 300.753906 202.449219 300.714844 202.351562 300.675781 202.25 C 300.675781 202.25 300.675781 202.230469 300.675781 202.230469 Z M 300.027344 202.371094 C 300.085938 202.53125 300.332031 203.269531 300.675781 204.332031 L 298.226562 204.953125 C 298.207031 204.871094 298.183594 204.8125 298.164062 204.730469 C 298.003906 204.210938 297.859375 203.792969 297.761719 203.492188 C 297.71875 203.332031 297.679688 203.230469 297.636719 203.132812 C 297.617188 203.089844 297.597656 203.011719 297.558594 202.953125 Z M 297.273438 203.132812 L 296.96875 203.25 C 297.011719 203.332031 297.234375 204.050781 297.578125 205.113281 L 295.089844 205.734375 L 294.421875 203.730469 L 297.03125 203.109375 L 296.96875 203.230469 Z M 297.273438 203.132812 " fill-opacity="1" fill-rule="nonzero"/><path fill="#231f20" d="M 289.320312 218.078125 L 297.457031 215.796875 L 296.140625 212.175781 L 293.933594 212.738281 L 293.285156 210.195312 L 289.988281 211.015625 L 290.636719 213.65625 L 288.488281 214.175781 Z M 295.714844 212.957031 L 296.605469 215.378906 L 294.621094 215.9375 L 294.054688 213.378906 Z M 293.996094 216.097656 L 292.03125 216.640625 L 291.382812 214.097656 L 293.429688 213.515625 Z M 292.800781 210.976562 L 293.285156 212.917969 L 291.242188 213.496094 L 290.734375 211.496094 Z M 290.777344 214.277344 L 291.425781 216.839844 L 289.804688 217.300781 L 289.238281 214.65625 Z M 290.777344 214.277344 " fill-opacity="1" fill-rule="nonzero"/><path fill="#231f20" d="M 286.628906 209.234375 L 294.398438 207.113281 L 293.164062 203.132812 L 285.574219 205.234375 Z M 293.285156 205.691406 L 293.589844 206.671875 L 292.253906 207.035156 L 291.949219 206.054688 Z M 292.71875 203.910156 L 293.085938 205.074219 L 291.75 205.433594 L 291.382812 204.273438 Z M 291.625 207.214844 L 289.601562 207.773438 L 289.300781 206.773438 L 291.324219 206.214844 Z M 290.777344 204.453125 L 291.140625 205.613281 L 289.117188 206.171875 L 288.773438 205.03125 Z M 288.976562 207.933594 L 287.113281 208.453125 L 286.851562 207.453125 L 288.671875 206.953125 Z M 288.46875 206.332031 L 286.667969 206.832031 L 286.363281 205.671875 L 288.125 205.191406 Z M 288.46875 206.332031 " fill-opacity="1" fill-rule="nonzero"/><path fill="#231f20" d="M 294.339844 201.652344 C 294.824219 201.449219 295.3125 201.308594 295.816406 201.210938 C 296.160156 201.148438 296.363281 200.730469 296.261719 200.429688 C 296.160156 200.070312 295.816406 199.910156 295.472656 199.988281 C 294.84375 200.109375 294.257812 200.308594 293.671875 200.550781 C 293.347656 200.691406 293.285156 201.148438 293.449219 201.429688 C 293.628906 201.75 294.015625 201.789062 294.339844 201.652344 Z M 294.339844 201.652344 " fill-opacity="1" fill-rule="nonzero"/><path fill="#231f20" d="M 298.894531 200.667969 C 299.195312 200.53125 299.542969 200.449219 299.863281 200.429688 C 300.210938 200.390625 300.511719 200.148438 300.511719 199.789062 C 300.511719 199.46875 300.210938 199.109375 299.863281 199.148438 C 299.277344 199.210938 298.75 199.328125 298.226562 199.570312 C 297.902344 199.710938 297.820312 200.167969 298.003906 200.449219 C 298.207031 200.769531 298.589844 200.808594 298.894531 200.667969 Z M 298.894531 200.667969 " fill-opacity="1" fill-rule="nonzero"/><path fill="#231f20" d="M 306.96875 214.816406 C 295.9375 218.820312 284.785156 222.542969 273.550781 225.945312 C 270.394531 226.90625 267.234375 227.84375 264.078125 228.746094 C 263.753906 228.847656 263.894531 229.324219 264.21875 229.246094 C 275.515625 225.984375 286.707031 222.441406 297.800781 218.601562 C 300.917969 217.519531 304.015625 216.417969 307.113281 215.296875 C 307.414062 215.21875 307.273438 214.71875 306.96875 214.816406 Z M 306.96875 214.816406 " fill-opacity="1" fill-rule="nonzero"/><path fill="#231f20" d="M 266.445312 207.59375 C 270.617188 206.453125 274.785156 205.253906 278.914062 203.992188 C 281.261719 203.269531 283.609375 202.53125 285.960938 201.769531 C 286.28125 201.671875 286.140625 201.171875 285.816406 201.269531 C 281.464844 202.691406 277.074219 204.03125 272.679688 205.3125 C 268.308594 206.574219 263.894531 207.695312 259.503906 208.894531 C 257.660156 209.394531 255.597656 210.316406 255.253906 212.398438 C 255.191406 212.714844 255.699219 212.855469 255.757812 212.535156 C 256.121094 210.414062 258.371094 209.734375 260.191406 209.253906 C 262.277344 208.695312 264.359375 208.152344 266.445312 207.59375 Z M 266.445312 207.59375 " fill-opacity="1" fill-rule="nonzero"/><path fill="#231f20" d="M 284.746094 202.910156 C 279.945312 204.351562 275.171875 205.792969 270.371094 207.253906 C 270.050781 207.355469 270.191406 207.855469 270.515625 207.753906 C 275.3125 206.3125 280.089844 204.871094 284.886719 203.410156 C 285.210938 203.3125 285.070312 202.8125 284.746094 202.910156 Z M 284.746094 202.910156 " fill-opacity="1" fill-rule="nonzero"/><g fill="#000000" fill-opacity="1"><g transform="translate(88.908882, 179.143546)"><g><path d="M 11.0625 -7.359375 L 14.25 -7.359375 L 14.25 -1.71875 C 13.46875 -1.164062 12.519531 -0.710938 11.40625 -0.359375 C 10.300781 -0.00390625 9.242188 0.171875 8.234375 0.171875 C 6.023438 0.171875 4.179688 -0.535156 2.703125 -1.953125 C 1.234375 -3.367188 0.5 -5.128906 0.5 -7.234375 C 0.5 -9.335938 1.253906 -11.09375 2.765625 -12.5 C 4.285156 -13.90625 6.191406 -14.609375 8.484375 -14.609375 C 9.554688 -14.609375 10.625 -14.414062 11.6875 -14.03125 C 12.75 -13.644531 13.65625 -13.117188 14.40625 -12.453125 L 12.328125 -9.953125 C 11.804688 -10.429688 11.195312 -10.8125 10.5 -11.09375 C 9.8125 -11.375 9.132812 -11.515625 8.46875 -11.515625 C 7.28125 -11.515625 6.28125 -11.101562 5.46875 -10.28125 C 4.664062 -9.46875 4.265625 -8.453125 4.265625 -7.234375 C 4.265625 -6.015625 4.671875 -4.988281 5.484375 -4.15625 C 6.296875 -3.332031 7.300781 -2.921875 8.5 -2.921875 C 9.269531 -2.921875 10.125 -3.15625 11.0625 -3.625 Z M 11.0625 -7.359375 "/></g></g></g><g fill="#000000" fill-opacity="1"><g transform="translate(107.379578, 179.143546)"><g><path d="M 5.125 0 L 1.453125 0 L 1.453125 -14.484375 L 5.125 -14.484375 Z M 5.125 0 "/></g></g></g><g fill="#000000" fill-opacity="1"><g transform="translate(117.059628, 179.143546)"><g><path d="M 10.171875 0 L 8.03125 -4.078125 L 5.125 -4.078125 L 5.125 0 L 1.453125 0 L 1.453125 -14.484375 L 7.921875 -14.484375 C 9.835938 -14.484375 11.316406 -14.046875 12.359375 -13.171875 C 13.410156 -12.296875 13.9375 -11.050781 13.9375 -9.4375 C 13.9375 -7.195312 13.0625 -5.644531 11.3125 -4.78125 L 14.359375 0 Z M 5.125 -6.96875 L 7.921875 -6.96875 C 8.722656 -6.96875 9.34375 -7.164062 9.78125 -7.5625 C 10.226562 -7.96875 10.453125 -8.550781 10.453125 -9.3125 C 10.453125 -10.050781 10.226562 -10.613281 9.78125 -11 C 9.34375 -11.382812 8.722656 -11.578125 7.921875 -11.578125 L 5.125 -11.578125 Z M 5.125 -6.96875 "/></g></g></g><g fill="#000000" fill-opacity="1"><g transform="translate(135.137328, 179.143546)"><g><path d="M 14.484375 -14.484375 L 14.484375 -6.078125 C 14.484375 -4.160156 13.890625 -2.640625 12.703125 -1.515625 C 11.515625 -0.390625 9.90625 0.171875 7.875 0.171875 C 5.832031 0.171875 4.207031 -0.390625 3 -1.515625 C 1.800781 -2.640625 1.203125 -4.160156 1.203125 -6.078125 L 1.203125 -14.484375 L 4.875 -14.484375 L 4.875 -6.078125 C 4.875 -5.117188 5.15625 -4.351562 5.71875 -3.78125 C 6.28125 -3.207031 7.007812 -2.921875 7.90625 -2.921875 C 8.789062 -2.921875 9.492188 -3.203125 10.015625 -3.765625 C 10.546875 -4.328125 10.8125 -5.097656 10.8125 -6.078125 L 10.8125 -14.484375 Z M 14.484375 -14.484375 "/></g></g></g><g fill="#000000" fill-opacity="1"><g transform="translate(153.918286, 179.143546)"><g><path d="M 17.359375 0 L 14.109375 0 L 14.09375 -9.40625 L 10.609375 -1.453125 L 8.21875 -1.453125 L 4.734375 -9.40625 L 4.734375 0 L 1.453125 0 L 1.453125 -14.5 L 5.484375 -14.5 L 9.40625 -5.875 L 13.34375 -14.5 L 17.359375 -14.5 Z M 17.359375 0 "/></g></g></g><g fill="#000000" fill-opacity="1"><g transform="translate(175.843191, 179.143546)"><g/></g></g><g fill="#000000" fill-opacity="1"><g transform="translate(183.744432, 179.143546)"><g><path d="M 13.234375 -12.125 L 5.5 -2.921875 L 13.359375 -2.921875 L 13.359375 0 L 0.578125 0 L 0.578125 -2.359375 L 8.34375 -11.5625 L 0.84375 -11.5625 L 0.84375 -14.484375 L 13.234375 -14.484375 Z M 13.234375 -12.125 "/></g></g></g><g fill="#000000" fill-opacity="1"><g transform="translate(200.808627, 179.143546)"><g><path d="M 12.78125 -11.578125 L 5.125 -11.578125 L 5.125 -8.703125 L 12.046875 -8.703125 L 12.046875 -5.8125 L 5.125 -5.8125 L 5.125 -2.890625 L 13.015625 -2.890625 L 13.015625 0 L 1.453125 0 L 1.453125 -14.484375 L 12.78125 -14.484375 Z M 12.78125 -11.578125 "/></g></g></g><g fill="#000000" fill-opacity="1"><g transform="translate(217.852134, 179.143546)"><g><path d="M 1.453125 -14.484375 L 8.296875 -14.484375 C 9.921875 -14.484375 11.210938 -14.15625 12.171875 -13.5 C 13.128906 -12.84375 13.609375 -11.960938 13.609375 -10.859375 C 13.609375 -10.097656 13.382812 -9.429688 12.9375 -8.859375 C 12.5 -8.285156 11.894531 -7.890625 11.125 -7.671875 C 12.039062 -7.492188 12.765625 -7.070312 13.296875 -6.40625 C 13.835938 -5.75 14.109375 -4.953125 14.109375 -4.015625 C 14.109375 -2.785156 13.609375 -1.804688 12.609375 -1.078125 C 11.609375 -0.359375 10.253906 0 8.546875 0 L 1.453125 0 Z M 5.109375 -11.671875 L 5.109375 -8.6875 L 8.09375 -8.6875 C 8.625 -8.6875 9.046875 -8.820312 9.359375 -9.09375 C 9.679688 -9.363281 9.84375 -9.734375 9.84375 -10.203125 C 9.84375 -10.648438 9.679688 -11.003906 9.359375 -11.265625 C 9.046875 -11.535156 8.625 -11.671875 8.09375 -11.671875 Z M 5.109375 -6.046875 L 5.109375 -2.828125 L 8.09375 -2.828125 C 8.78125 -2.828125 9.316406 -2.972656 9.703125 -3.265625 C 10.097656 -3.554688 10.296875 -3.957031 10.296875 -4.46875 C 10.296875 -4.945312 10.097656 -5.328125 9.703125 -5.609375 C 9.316406 -5.898438 8.78125 -6.046875 8.09375 -6.046875 Z M 5.109375 -6.046875 "/></g></g></g><g fill="#000000" fill-opacity="1"><g transform="translate(235.743688, 179.143546)"><g><path d="M 12.78125 -11.578125 L 5.125 -11.578125 L 5.125 -8.703125 L 12.046875 -8.703125 L 12.046875 -5.8125 L 5.125 -5.8125 L 5.125 -2.890625 L 13.015625 -2.890625 L 13.015625 0 L 1.453125 0 L 1.453125 -14.484375 L 12.78125 -14.484375 Z M 12.78125 -11.578125 "/></g></g></g><g fill="#000000" fill-opacity="1"><g transform="translate(252.787195, 179.143546)"><g><path d="M 14.8125 0 L 11.5625 0 L 4.90625 -8.921875 L 4.90625 0 L 1.453125 0 L 1.453125 -14.484375 L 4.703125 -14.484375 L 11.375 -5.546875 L 11.375 -14.484375 L 14.8125 -14.484375 Z M 14.8125 0 "/></g></g></g><g fill="#000000" fill-opacity="1"><g transform="translate(272.147299, 179.143546)"><g><path d="M 12.78125 -11.578125 L 5.125 -11.578125 L 5.125 -8.703125 L 12.046875 -8.703125 L 12.046875 -5.8125 L 5.125 -5.8125 L 5.125 -2.890625 L 13.015625 -2.890625 L 13.015625 0 L 1.453125 0 L 1.453125 -14.484375 L 12.78125 -14.484375 Z M 12.78125 -11.578125 "/></g></g></g><g fill="#000000" fill-opacity="1"><g transform="translate(120.60719, 210.262939)"><g><path d="M 3.65625 -7.390625 C 3.164062 -7.390625 2.773438 -7.285156 2.484375 -7.078125 C 2.191406 -6.878906 2.046875 -6.632812 2.046875 -6.34375 C 2.046875 -6.050781 2.140625 -5.800781 2.328125 -5.59375 C 2.515625 -5.394531 2.75 -5.222656 3.03125 -5.078125 C 3.3125 -4.941406 3.578125 -4.816406 3.828125 -4.703125 C 4.234375 -4.535156 4.625 -4.347656 5 -4.140625 C 5.375 -3.929688 5.679688 -3.671875 5.921875 -3.359375 C 6.171875 -3.046875 6.296875 -2.644531 6.296875 -2.15625 C 6.296875 -1.445312 6.03125 -0.878906 5.5 -0.453125 C 4.96875 -0.0234375 4.21875 0.1875 3.25 0.1875 C 1.53125 0.1875 0.671875 -0.273438 0.671875 -1.203125 C 0.671875 -1.429688 0.75 -1.613281 0.90625 -1.75 C 1.070312 -1.882812 1.257812 -1.953125 1.46875 -1.953125 L 1.875 -0.828125 C 2.03125 -0.722656 2.226562 -0.632812 2.46875 -0.5625 C 2.71875 -0.488281 2.929688 -0.453125 3.109375 -0.453125 C 3.648438 -0.453125 4.09375 -0.5625 4.4375 -0.78125 C 4.78125 -1.007812 4.953125 -1.320312 4.953125 -1.71875 C 4.953125 -2 4.835938 -2.234375 4.609375 -2.421875 C 4.390625 -2.617188 4.117188 -2.789062 3.796875 -2.9375 C 3.472656 -3.09375 3.15625 -3.234375 2.84375 -3.359375 C 2.476562 -3.546875 2.132812 -3.738281 1.8125 -3.9375 C 1.488281 -4.132812 1.222656 -4.378906 1.015625 -4.671875 C 0.816406 -4.972656 0.71875 -5.34375 0.71875 -5.78125 C 0.71875 -6.457031 0.988281 -6.992188 1.53125 -7.390625 C 2.082031 -7.796875 2.816406 -8 3.734375 -8 C 4.148438 -8 4.546875 -7.953125 4.921875 -7.859375 C 5.296875 -7.765625 5.597656 -7.617188 5.828125 -7.421875 C 6.066406 -7.222656 6.1875 -6.96875 6.1875 -6.65625 C 6.1875 -6.425781 6.097656 -6.226562 5.921875 -6.0625 C 5.753906 -5.894531 5.554688 -5.8125 5.328125 -5.8125 L 4.8125 -7.1875 C 4.664062 -7.238281 4.492188 -7.285156 4.296875 -7.328125 C 4.097656 -7.367188 3.882812 -7.390625 3.65625 -7.390625 Z M 3.65625 -7.390625 "/></g></g></g><g fill="#000000" fill-opacity="1"><g transform="translate(127.572706, 210.262939)"><g><path d="M 4.609375 -8 C 5.847656 -8 6.8125 -7.640625 7.5 -6.921875 C 8.195312 -6.210938 8.546875 -5.210938 8.546875 -3.921875 C 8.546875 -2.640625 8.21875 -1.632812 7.5625 -0.90625 C 6.914062 -0.175781 5.929688 0.1875 4.609375 0.1875 C 3.285156 0.1875 2.296875 -0.179688 1.640625 -0.921875 C 0.992188 -1.671875 0.671875 -2.671875 0.671875 -3.921875 C 0.671875 -5.179688 1.015625 -6.175781 1.703125 -6.90625 C 2.398438 -7.632812 3.367188 -8 4.609375 -8 Z M 4.609375 -7.390625 C 3.910156 -7.390625 3.347656 -7.082031 2.921875 -6.46875 C 2.503906 -5.863281 2.296875 -5.03125 2.296875 -3.96875 C 2.296875 -2.914062 2.5 -2.0625 2.90625 -1.40625 C 3.320312 -0.757812 3.890625 -0.4375 4.609375 -0.4375 C 5.316406 -0.4375 5.878906 -0.757812 6.296875 -1.40625 C 6.710938 -2.050781 6.921875 -2.90625 6.921875 -3.96875 C 6.921875 -5.039062 6.707031 -5.878906 6.28125 -6.484375 C 5.863281 -7.085938 5.304688 -7.390625 4.609375 -7.390625 Z M 4.609375 -7.390625 "/></g></g></g><g fill="#000000" fill-opacity="1"><g transform="translate(136.78192, 210.262939)"><g><path d="M 1.59375 -0.453125 L 1.59375 -7.21875 L 0.453125 -7.21875 L 0.328125 -7.828125 L 1.59375 -8.21875 L 1.59375 -9.078125 C 1.59375 -9.710938 1.71875 -10.289062 1.96875 -10.8125 C 2.21875 -11.332031 2.582031 -11.742188 3.0625 -12.046875 C 3.539062 -12.359375 4.125 -12.515625 4.8125 -12.515625 C 5.4375 -12.515625 5.925781 -12.414062 6.28125 -12.21875 C 6.632812 -12.03125 6.8125 -11.703125 6.8125 -11.234375 C 6.8125 -10.984375 6.71875 -10.769531 6.53125 -10.59375 C 6.351562 -10.425781 6.144531 -10.34375 5.90625 -10.34375 L 5.4375 -11.71875 C 5.4375 -11.71875 5.378906 -11.742188 5.265625 -11.796875 C 5.160156 -11.859375 5.03125 -11.890625 4.875 -11.890625 C 4.394531 -11.890625 3.988281 -11.703125 3.65625 -11.328125 C 3.332031 -10.953125 3.171875 -10.3125 3.171875 -9.40625 L 3.171875 -7.828125 L 5.1875 -7.828125 L 5.078125 -7.21875 L 3.171875 -7.21875 L 3.171875 0 C 3.171875 0.8125 3 1.53125 2.65625 2.15625 C 2.320312 2.789062 1.882812 3.285156 1.34375 3.640625 C 0.800781 4.003906 0.21875 4.1875 -0.40625 4.1875 C -0.613281 4.1875 -0.796875 4.113281 -0.953125 3.96875 C -1.117188 3.820312 -1.203125 3.644531 -1.203125 3.4375 C -1.203125 3.207031 -1.117188 3.023438 -0.953125 2.890625 C -0.796875 2.753906 -0.613281 2.6875 -0.40625 2.6875 L 0 3.453125 C 0.46875 3.253906 0.816406 2.953125 1.046875 2.546875 C 1.273438 2.140625 1.421875 1.675781 1.484375 1.15625 C 1.554688 0.644531 1.59375 0.109375 1.59375 -0.453125 Z M 1.59375 -0.453125 "/></g></g></g><g fill="#000000" fill-opacity="1"><g transform="translate(143.010696, 210.262939)"><g><path d="M 2.828125 -9.765625 L 2.828125 -7.828125 L 5.03125 -7.828125 L 4.90625 -7.21875 L 2.828125 -7.21875 L 2.828125 -1.84375 C 2.828125 -1.445312 2.921875 -1.140625 3.109375 -0.921875 C 3.296875 -0.710938 3.507812 -0.609375 3.75 -0.609375 C 4.050781 -0.609375 4.300781 -0.664062 4.5 -0.78125 C 4.707031 -0.894531 4.898438 -1.046875 5.078125 -1.234375 L 5.453125 -0.78125 C 5.179688 -0.5 4.898438 -0.265625 4.609375 -0.078125 C 4.328125 0.0976562 3.945312 0.1875 3.46875 0.1875 C 2.695312 0.1875 2.132812 -0.0195312 1.78125 -0.4375 C 1.425781 -0.851562 1.25 -1.363281 1.25 -1.96875 L 1.25 -7.21875 L 0.28125 -7.21875 L 0.171875 -7.828125 L 1.359375 -8.1875 L 2.0625 -9.953125 Z M 2.828125 -9.765625 "/></g></g></g><g fill="#000000" fill-opacity="1"><g transform="translate(148.469247, 210.262939)"><g><path d="M 6.1875 -1.15625 C 5.945312 -0.6875 5.625 -0.34375 5.21875 -0.125 C 4.8125 0.0820312 4.394531 0.1875 3.96875 0.1875 C 3.050781 0.1875 2.34375 -0.0625 1.84375 -0.5625 C 1.351562 -1.0625 1.109375 -1.8125 1.109375 -2.8125 L 1.109375 -7.21875 L 0.171875 -7.21875 L 0.171875 -7.828125 C 0.359375 -7.859375 0.601562 -7.894531 0.90625 -7.9375 C 1.207031 -7.976562 1.5 -8 1.78125 -8 C 2.09375 -8 2.304688 -7.9375 2.421875 -7.8125 C 2.546875 -7.6875 2.617188 -7.554688 2.640625 -7.421875 C 2.671875 -7.285156 2.6875 -7.21875 2.6875 -7.21875 L 2.6875 -2.484375 C 2.6875 -1.847656 2.832031 -1.347656 3.125 -0.984375 C 3.414062 -0.628906 3.816406 -0.453125 4.328125 -0.453125 C 4.578125 -0.453125 4.816406 -0.535156 5.046875 -0.703125 C 5.285156 -0.867188 5.476562 -1.140625 5.625 -1.515625 C 5.78125 -1.890625 5.859375 -2.394531 5.859375 -3.03125 L 5.859375 -7.21875 L 4.921875 -7.21875 L 4.921875 -7.828125 C 5.109375 -7.859375 5.351562 -7.894531 5.65625 -7.9375 C 5.957031 -7.976562 6.25 -8 6.53125 -8 C 6.84375 -8 7.0625 -7.9375 7.1875 -7.8125 C 7.3125 -7.6875 7.382812 -7.554688 7.40625 -7.421875 C 7.425781 -7.285156 7.4375 -7.21875 7.4375 -7.21875 L 7.4375 -2.5 C 7.4375 -1.988281 7.53125 -1.582031 7.71875 -1.28125 C 7.90625 -0.988281 8.140625 -0.773438 8.421875 -0.640625 C 8.703125 -0.515625 8.984375 -0.453125 9.265625 -0.453125 C 9.546875 -0.453125 9.851562 -0.550781 10.1875 -0.75 C 10.53125 -0.957031 10.820312 -1.296875 11.0625 -1.765625 C 11.3125 -2.234375 11.4375 -2.867188 11.4375 -3.671875 C 11.4375 -4.054688 11.394531 -4.460938 11.3125 -4.890625 C 11.238281 -5.328125 11.117188 -5.71875 10.953125 -6.0625 C 10.785156 -6.414062 10.566406 -6.664062 10.296875 -6.8125 L 9.84375 -6.140625 C 9.59375 -6.140625 9.375 -6.226562 9.1875 -6.40625 C 9.007812 -6.59375 8.921875 -6.8125 8.921875 -7.0625 C 8.921875 -7.320312 9.007812 -7.539062 9.1875 -7.71875 C 9.375 -7.90625 9.59375 -8 9.84375 -8 C 10.195312 -8 10.503906 -7.894531 10.765625 -7.6875 C 11.023438 -7.488281 11.242188 -7.222656 11.421875 -6.890625 C 11.609375 -6.566406 11.757812 -6.210938 11.875 -5.828125 C 12 -5.453125 12.085938 -5.09375 12.140625 -4.75 C 12.203125 -4.40625 12.234375 -4.125 12.234375 -3.90625 C 12.234375 -3.019531 12.132812 -2.304688 11.9375 -1.765625 C 11.738281 -1.234375 11.472656 -0.828125 11.140625 -0.546875 C 10.816406 -0.265625 10.441406 -0.0703125 10.015625 0.03125 C 9.585938 0.132812 9.144531 0.1875 8.6875 0.1875 C 7.4375 0.1875 6.601562 -0.257812 6.1875 -1.15625 Z M 6.1875 -1.15625 "/></g></g></g><g fill="#000000" fill-opacity="1"><g transform="translate(161.362146, 210.262939)"><g><path d="M 3.859375 0.1875 C 3.304688 0.1875 2.773438 0.0664062 2.265625 -0.171875 C 1.753906 -0.410156 1.332031 -0.800781 1 -1.34375 C 0.675781 -1.882812 0.515625 -2.601562 0.515625 -3.5 C 0.515625 -4.570312 0.6875 -5.4375 1.03125 -6.09375 C 1.382812 -6.75 1.847656 -7.226562 2.421875 -7.53125 C 3.003906 -7.84375 3.648438 -8 4.359375 -8 C 4.609375 -8 4.859375 -7.984375 5.109375 -7.953125 C 5.367188 -7.921875 5.601562 -7.847656 5.8125 -7.734375 L 6.796875 -8 L 7.390625 -7.828125 L 7.390625 -1.375 C 7.390625 -1.113281 7.476562 -0.921875 7.65625 -0.796875 C 7.832031 -0.671875 8.050781 -0.609375 8.3125 -0.609375 L 8.3125 0 C 8.175781 0.0625 8.023438 0.109375 7.859375 0.140625 C 7.703125 0.171875 7.546875 0.1875 7.390625 0.1875 C 7.097656 0.1875 6.804688 0.09375 6.515625 -0.09375 C 6.234375 -0.28125 6.03125 -0.609375 5.90625 -1.078125 C 5.71875 -0.671875 5.429688 -0.359375 5.046875 -0.140625 C 4.660156 0.078125 4.265625 0.1875 3.859375 0.1875 Z M 5.8125 -3.265625 L 5.8125 -7 C 5.539062 -7.15625 5.304688 -7.257812 5.109375 -7.3125 C 4.921875 -7.363281 4.695312 -7.390625 4.4375 -7.390625 C 4.082031 -7.390625 3.726562 -7.273438 3.375 -7.046875 C 3.019531 -6.816406 2.722656 -6.425781 2.484375 -5.875 C 2.253906 -5.320312 2.140625 -4.554688 2.140625 -3.578125 C 2.140625 -2.804688 2.234375 -2.203125 2.421875 -1.765625 C 2.609375 -1.335938 2.84375 -1.035156 3.125 -0.859375 C 3.414062 -0.691406 3.710938 -0.609375 4.015625 -0.609375 C 4.296875 -0.609375 4.570312 -0.695312 4.84375 -0.875 C 5.125 -1.050781 5.351562 -1.332031 5.53125 -1.71875 C 5.71875 -2.113281 5.8125 -2.628906 5.8125 -3.265625 Z M 5.8125 -3.265625 "/></g></g></g><g fill="#000000" fill-opacity="1"><g transform="translate(169.901604, 210.262939)"><g><path d="M 1.609375 -7.21875 L 0.671875 -7.21875 L 0.671875 -7.828125 C 0.859375 -7.859375 1.101562 -7.894531 1.40625 -7.9375 C 1.707031 -7.976562 2 -8 2.28125 -8 C 2.507812 -8 2.6875 -7.945312 2.8125 -7.84375 C 2.9375 -7.75 3.023438 -7.628906 3.078125 -7.484375 C 3.128906 -7.347656 3.160156 -7.226562 3.171875 -7.125 C 3.179688 -7.03125 3.1875 -6.984375 3.1875 -6.984375 L 3.1875 -6.0625 C 3.40625 -6.664062 3.742188 -7.140625 4.203125 -7.484375 C 4.671875 -7.828125 5.125 -8 5.5625 -8 C 6 -8 6.304688 -7.898438 6.484375 -7.703125 C 6.660156 -7.515625 6.75 -7.289062 6.75 -7.03125 C 6.75 -6.789062 6.65625 -6.582031 6.46875 -6.40625 C 6.289062 -6.226562 6.066406 -6.140625 5.796875 -6.140625 L 5.328125 -7.21875 C 5.054688 -7.21875 4.753906 -7.085938 4.421875 -6.828125 C 4.085938 -6.578125 3.796875 -6.191406 3.546875 -5.671875 C 3.304688 -5.160156 3.1875 -4.507812 3.1875 -3.71875 L 3.1875 0 L 1.609375 0 Z M 1.609375 -7.21875 "/></g></g></g><g fill="#000000" fill-opacity="1"><g transform="translate(176.816885, 210.262939)"><g><path d="M 7.859375 -5.640625 C 7.859375 -5.128906 7.707031 -4.710938 7.40625 -4.390625 C 7.113281 -4.066406 6.710938 -3.8125 6.203125 -3.625 C 5.691406 -3.445312 5.109375 -3.320312 4.453125 -3.25 C 3.804688 -3.1875 3.128906 -3.15625 2.421875 -3.15625 C 2.546875 -2.394531 2.820312 -1.78125 3.25 -1.3125 C 3.6875 -0.84375 4.285156 -0.609375 5.046875 -0.609375 C 5.492188 -0.609375 5.914062 -0.675781 6.3125 -0.8125 C 6.71875 -0.957031 7.09375 -1.140625 7.4375 -1.359375 L 7.828125 -0.796875 C 7.460938 -0.472656 7.023438 -0.226562 6.515625 -0.0625 C 6.015625 0.101562 5.488281 0.1875 4.9375 0.1875 C 3.457031 0.1875 2.363281 -0.1875 1.65625 -0.9375 C 0.945312 -1.6875 0.59375 -2.679688 0.59375 -3.921875 C 0.59375 -4.773438 0.765625 -5.503906 1.109375 -6.109375 C 1.453125 -6.722656 1.925781 -7.191406 2.53125 -7.515625 C 3.132812 -7.835938 3.828125 -8 4.609375 -8 C 5.578125 -8 6.359375 -7.820312 6.953125 -7.46875 C 7.554688 -7.113281 7.859375 -6.503906 7.859375 -5.640625 Z M 2.359375 -4.046875 L 2.359375 -3.734375 C 3.097656 -3.742188 3.765625 -3.835938 4.359375 -4.015625 C 4.953125 -4.191406 5.421875 -4.4375 5.765625 -4.75 C 6.109375 -5.0625 6.28125 -5.425781 6.28125 -5.84375 C 6.28125 -6.875 5.703125 -7.390625 4.546875 -7.390625 C 4.054688 -7.390625 3.648438 -7.242188 3.328125 -6.953125 C 3.003906 -6.660156 2.757812 -6.265625 2.59375 -5.765625 C 2.4375 -5.265625 2.359375 -4.691406 2.359375 -4.046875 Z M 2.359375 -4.046875 "/></g></g></g><g fill="#000000" fill-opacity="1"><g transform="translate(185.172155, 210.262939)"><g/></g></g><g fill="#000000" fill-opacity="1"><g transform="translate(189.358164, 210.262939)"><g><path d="M 7.859375 -5.640625 C 7.859375 -5.128906 7.707031 -4.710938 7.40625 -4.390625 C 7.113281 -4.066406 6.710938 -3.8125 6.203125 -3.625 C 5.691406 -3.445312 5.109375 -3.320312 4.453125 -3.25 C 3.804688 -3.1875 3.128906 -3.15625 2.421875 -3.15625 C 2.546875 -2.394531 2.820312 -1.78125 3.25 -1.3125 C 3.6875 -0.84375 4.285156 -0.609375 5.046875 -0.609375 C 5.492188 -0.609375 5.914062 -0.675781 6.3125 -0.8125 C 6.71875 -0.957031 7.09375 -1.140625 7.4375 -1.359375 L 7.828125 -0.796875 C 7.460938 -0.472656 7.023438 -0.226562 6.515625 -0.0625 C 6.015625 0.101562 5.488281 0.1875 4.9375 0.1875 C 3.457031 0.1875 2.363281 -0.1875 1.65625 -0.9375 C 0.945312 -1.6875 0.59375 -2.679688 0.59375 -3.921875 C 0.59375 -4.773438 0.765625 -5.503906 1.109375 -6.109375 C 1.453125 -6.722656 1.925781 -7.191406 2.53125 -7.515625 C 3.132812 -7.835938 3.828125 -8 4.609375 -8 C 5.578125 -8 6.359375 -7.820312 6.953125 -7.46875 C 7.554688 -7.113281 7.859375 -6.503906 7.859375 -5.640625 Z M 2.359375 -4.046875 L 2.359375 -3.734375 C 3.097656 -3.742188 3.765625 -3.835938 4.359375 -4.015625 C 4.953125 -4.191406 5.421875 -4.4375 5.765625 -4.75 C 6.109375 -5.0625 6.28125 -5.425781 6.28125 -5.84375 C 6.28125 -6.875 5.703125 -7.390625 4.546875 -7.390625 C 4.054688 -7.390625 3.648438 -7.242188 3.328125 -6.953125 C 3.003906 -6.660156 2.757812 -6.265625 2.59375 -5.765625 C 2.4375 -5.265625 2.359375 -4.691406 2.359375 -4.046875 Z M 2.359375 -4.046875 "/></g></g></g><g fill="#000000" fill-opacity="1"><g transform="translate(197.713434, 210.262939)"><g><path d="M 3.171875 -7.21875 L 3.171875 -6.0625 C 3.316406 -6.457031 3.519531 -6.796875 3.78125 -7.078125 C 4.050781 -7.367188 4.347656 -7.59375 4.671875 -7.75 C 4.992188 -7.914062 5.300781 -8 5.59375 -8 C 6.507812 -8 7.171875 -7.734375 7.578125 -7.203125 C 7.984375 -6.679688 8.1875 -5.957031 8.1875 -5.03125 L 8.1875 -1.375 C 8.1875 -1.113281 8.285156 -0.921875 8.484375 -0.796875 C 8.691406 -0.671875 8.921875 -0.609375 9.171875 -0.609375 L 9.171875 0 C 9.066406 0.0507812 8.910156 0.09375 8.703125 0.125 C 8.492188 0.164062 8.28125 0.1875 8.0625 0.1875 C 7.851562 0.1875 7.632812 0.140625 7.40625 0.046875 C 7.1875 -0.0351562 7 -0.1875 6.84375 -0.40625 C 6.6875 -0.632812 6.609375 -0.945312 6.609375 -1.34375 L 6.609375 -5.4375 C 6.609375 -5.976562 6.488281 -6.410156 6.25 -6.734375 C 6.007812 -7.054688 5.679688 -7.21875 5.265625 -7.21875 C 4.984375 -7.21875 4.675781 -7.097656 4.34375 -6.859375 C 4.019531 -6.617188 3.742188 -6.238281 3.515625 -5.71875 C 3.285156 -5.207031 3.171875 -4.539062 3.171875 -3.71875 L 3.171875 0 L 1.59375 0 L 1.59375 -7.21875 L 0.59375 -7.21875 L 0.59375 -7.828125 C 0.78125 -7.859375 1.035156 -7.894531 1.359375 -7.9375 C 1.679688 -7.976562 1.984375 -8 2.265625 -8 C 2.578125 -8 2.789062 -7.9375 2.90625 -7.8125 C 3.03125 -7.6875 3.101562 -7.554688 3.125 -7.421875 C 3.15625 -7.285156 3.171875 -7.21875 3.171875 -7.21875 Z M 3.171875 -7.21875 "/></g></g></g><g fill="#000000" fill-opacity="1"><g transform="translate(207.475206, 210.262939)"><g><path d="M 2.328125 -3.546875 C 2.328125 -2.835938 2.410156 -2.28125 2.578125 -1.875 C 2.753906 -1.46875 2.984375 -1.179688 3.265625 -1.015625 C 3.554688 -0.859375 3.867188 -0.78125 4.203125 -0.78125 C 4.484375 -0.78125 4.785156 -0.890625 5.109375 -1.109375 C 5.429688 -1.335938 5.707031 -1.695312 5.9375 -2.1875 C 6.164062 -2.6875 6.28125 -3.328125 6.28125 -4.109375 L 6.28125 -7.0625 C 6.039062 -7.144531 5.785156 -7.21875 5.515625 -7.28125 C 5.253906 -7.351562 4.976562 -7.390625 4.6875 -7.390625 C 3.988281 -7.390625 3.421875 -7.0625 2.984375 -6.40625 C 2.546875 -5.757812 2.328125 -4.804688 2.328125 -3.546875 Z M 7.859375 -7.828125 L 7.859375 0.890625 C 7.859375 1.722656 7.675781 2.378906 7.3125 2.859375 C 6.957031 3.335938 6.492188 3.675781 5.921875 3.875 C 5.347656 4.082031 4.722656 4.1875 4.046875 4.1875 C 3.523438 4.1875 3.035156 4.109375 2.578125 3.953125 C 2.117188 3.796875 1.75 3.554688 1.46875 3.234375 C 1.195312 2.921875 1.0625 2.535156 1.0625 2.078125 C 1.0625 1.785156 1.140625 1.519531 1.296875 1.28125 C 1.460938 1.050781 1.660156 0.847656 1.890625 0.671875 C 2.128906 0.503906 2.363281 0.378906 2.59375 0.296875 L 2.9375 0.796875 C 2.6875 0.929688 2.488281 1.109375 2.34375 1.328125 C 2.207031 1.546875 2.140625 1.757812 2.140625 1.96875 C 2.140625 2.320312 2.300781 2.648438 2.625 2.953125 C 2.957031 3.265625 3.429688 3.421875 4.046875 3.421875 C 4.441406 3.421875 4.804688 3.351562 5.140625 3.21875 C 5.484375 3.09375 5.757812 2.859375 5.96875 2.515625 C 6.175781 2.179688 6.28125 1.703125 6.28125 1.078125 L 6.28125 -0.1875 L 6.609375 -2.09375 C 6.421875 -1.5 6.085938 -1 5.609375 -0.59375 C 5.128906 -0.195312 4.546875 0 3.859375 0 C 2.847656 0 2.050781 -0.269531 1.46875 -0.8125 C 0.882812 -1.363281 0.59375 -2.25 0.59375 -3.46875 C 0.59375 -4.863281 0.953125 -5.96875 1.671875 -6.78125 C 2.390625 -7.59375 3.382812 -8 4.65625 -8 C 4.914062 -8 5.195312 -7.976562 5.5 -7.9375 C 5.8125 -7.894531 6.070312 -7.828125 6.28125 -7.734375 L 7.265625 -8 Z M 7.859375 -7.828125 "/></g></g></g><g fill="#000000" fill-opacity="1"><g transform="translate(216.332799, 210.262939)"><g><path d="M 2.40625 -11.671875 C 2.65625 -11.671875 2.867188 -11.582031 3.046875 -11.40625 C 3.222656 -11.238281 3.3125 -11.023438 3.3125 -10.765625 C 3.3125 -10.523438 3.222656 -10.3125 3.046875 -10.125 C 2.867188 -9.945312 2.65625 -9.859375 2.40625 -9.859375 C 2.164062 -9.859375 1.953125 -9.945312 1.765625 -10.125 C 1.585938 -10.3125 1.5 -10.523438 1.5 -10.765625 C 1.5 -11.023438 1.585938 -11.238281 1.765625 -11.40625 C 1.953125 -11.582031 2.164062 -11.671875 2.40625 -11.671875 Z M 3.25 -7.21875 L 3.25 0 L 1.671875 0 L 1.671875 -7.21875 L 0.671875 -7.21875 L 0.671875 -7.828125 C 0.859375 -7.859375 1.113281 -7.894531 1.4375 -7.9375 C 1.757812 -7.976562 2.0625 -8 2.34375 -8 C 2.65625 -8 2.875 -7.9375 3 -7.8125 C 3.125 -7.6875 3.195312 -7.554688 3.21875 -7.421875 C 3.238281 -7.285156 3.25 -7.21875 3.25 -7.21875 Z M 3.25 -7.21875 "/></g></g></g><g fill="#000000" fill-opacity="1"><g transform="translate(220.987641, 210.262939)"><g><path d="M 3.171875 -7.21875 L 3.171875 -6.0625 C 3.316406 -6.457031 3.519531 -6.796875 3.78125 -7.078125 C 4.050781 -7.367188 4.347656 -7.59375 4.671875 -7.75 C 4.992188 -7.914062 5.300781 -8 5.59375 -8 C 6.507812 -8 7.171875 -7.734375 7.578125 -7.203125 C 7.984375 -6.679688 8.1875 -5.957031 8.1875 -5.03125 L 8.1875 -1.375 C 8.1875 -1.113281 8.285156 -0.921875 8.484375 -0.796875 C 8.691406 -0.671875 8.921875 -0.609375 9.171875 -0.609375 L 9.171875 0 C 9.066406 0.0507812 8.910156 0.09375 8.703125 0.125 C 8.492188 0.164062 8.28125 0.1875 8.0625 0.1875 C 7.851562 0.1875 7.632812 0.140625 7.40625 0.046875 C 7.1875 -0.0351562 7 -0.1875 6.84375 -0.40625 C 6.6875 -0.632812 6.609375 -0.945312 6.609375 -1.34375 L 6.609375 -5.4375 C 6.609375 -5.976562 6.488281 -6.410156 6.25 -6.734375 C 6.007812 -7.054688 5.679688 -7.21875 5.265625 -7.21875 C 4.984375 -7.21875 4.675781 -7.097656 4.34375 -6.859375 C 4.019531 -6.617188 3.742188 -6.238281 3.515625 -5.71875 C 3.285156 -5.207031 3.171875 -4.539062 3.171875 -3.71875 L 3.171875 0 L 1.59375 0 L 1.59375 -7.21875 L 0.59375 -7.21875 L 0.59375 -7.828125 C 0.78125 -7.859375 1.035156 -7.894531 1.359375 -7.9375 C 1.679688 -7.976562 1.984375 -8 2.265625 -8 C 2.578125 -8 2.789062 -7.9375 2.90625 -7.8125 C 3.03125 -7.6875 3.101562 -7.554688 3.125 -7.421875 C 3.15625 -7.285156 3.171875 -7.21875 3.171875 -7.21875 Z M 3.171875 -7.21875 "/></g></g></g><g fill="#000000" fill-opacity="1"><g transform="translate(230.749413, 210.262939)"><g><path d="M 7.859375 -5.640625 C 7.859375 -5.128906 7.707031 -4.710938 7.40625 -4.390625 C 7.113281 -4.066406 6.710938 -3.8125 6.203125 -3.625 C 5.691406 -3.445312 5.109375 -3.320312 4.453125 -3.25 C 3.804688 -3.1875 3.128906 -3.15625 2.421875 -3.15625 C 2.546875 -2.394531 2.820312 -1.78125 3.25 -1.3125 C 3.6875 -0.84375 4.285156 -0.609375 5.046875 -0.609375 C 5.492188 -0.609375 5.914062 -0.675781 6.3125 -0.8125 C 6.71875 -0.957031 7.09375 -1.140625 7.4375 -1.359375 L 7.828125 -0.796875 C 7.460938 -0.472656 7.023438 -0.226562 6.515625 -0.0625 C 6.015625 0.101562 5.488281 0.1875 4.9375 0.1875 C 3.457031 0.1875 2.363281 -0.1875 1.65625 -0.9375 C 0.945312 -1.6875 0.59375 -2.679688 0.59375 -3.921875 C 0.59375 -4.773438 0.765625 -5.503906 1.109375 -6.109375 C 1.453125 -6.722656 1.925781 -7.191406 2.53125 -7.515625 C 3.132812 -7.835938 3.828125 -8 4.609375 -8 C 5.578125 -8 6.359375 -7.820312 6.953125 -7.46875 C 7.554688 -7.113281 7.859375 -6.503906 7.859375 -5.640625 Z M 2.359375 -4.046875 L 2.359375 -3.734375 C 3.097656 -3.742188 3.765625 -3.835938 4.359375 -4.015625 C 4.953125 -4.191406 5.421875 -4.4375 5.765625 -4.75 C 6.109375 -5.0625 6.28125 -5.425781 6.28125 -5.84375 C 6.28125 -6.875 5.703125 -7.390625 4.546875 -7.390625 C 4.054688 -7.390625 3.648438 -7.242188 3.328125 -6.953125 C 3.003906 -6.660156 2.757812 -6.265625 2.59375 -5.765625 C 2.4375 -5.265625 2.359375 -4.691406 2.359375 -4.046875 Z M 2.359375 -4.046875 "/></g></g></g><g fill="#000000" fill-opacity="1"><g transform="translate(239.104683, 210.262939)"><g><path d="M 7.859375 -5.640625 C 7.859375 -5.128906 7.707031 -4.710938 7.40625 -4.390625 C 7.113281 -4.066406 6.710938 -3.8125 6.203125 -3.625 C 5.691406 -3.445312 5.109375 -3.320312 4.453125 -3.25 C 3.804688 -3.1875 3.128906 -3.15625 2.421875 -3.15625 C 2.546875 -2.394531 2.820312 -1.78125 3.25 -1.3125 C 3.6875 -0.84375 4.285156 -0.609375 5.046875 -0.609375 C 5.492188 -0.609375 5.914062 -0.675781 6.3125 -0.8125 C 6.71875 -0.957031 7.09375 -1.140625 7.4375 -1.359375 L 7.828125 -0.796875 C 7.460938 -0.472656 7.023438 -0.226562 6.515625 -0.0625 C 6.015625 0.101562 5.488281 0.1875 4.9375 0.1875 C 3.457031 0.1875 2.363281 -0.1875 1.65625 -0.9375 C 0.945312 -1.6875 0.59375 -2.679688 0.59375 -3.921875 C 0.59375 -4.773438 0.765625 -5.503906 1.109375 -6.109375 C 1.453125 -6.722656 1.925781 -7.191406 2.53125 -7.515625 C 3.132812 -7.835938 3.828125 -8 4.609375 -8 C 5.578125 -8 6.359375 -7.820312 6.953125 -7.46875 C 7.554688 -7.113281 7.859375 -6.503906 7.859375 -5.640625 Z M 2.359375 -4.046875 L 2.359375 -3.734375 C 3.097656 -3.742188 3.765625 -3.835938 4.359375 -4.015625 C 4.953125 -4.191406 5.421875 -4.4375 5.765625 -4.75 C 6.109375 -5.0625 6.28125 -5.425781 6.28125 -5.84375 C 6.28125 -6.875 5.703125 -7.390625 4.546875 -7.390625 C 4.054688 -7.390625 3.648438 -7.242188 3.328125 -6.953125 C 3.003906 -6.660156 2.757812 -6.265625 2.59375 -5.765625 C 2.4375 -5.265625 2.359375 -4.691406 2.359375 -4.046875 Z M 2.359375 -4.046875 "/></g></g></g><g fill="#000000" fill-opacity="1"><g transform="translate(247.459944, 210.262939)"><g><path d="M 1.609375 -7.21875 L 0.671875 -7.21875 L 0.671875 -7.828125 C 0.859375 -7.859375 1.101562 -7.894531 1.40625 -7.9375 C 1.707031 -7.976562 2 -8 2.28125 -8 C 2.507812 -8 2.6875 -7.945312 2.8125 -7.84375 C 2.9375 -7.75 3.023438 -7.628906 3.078125 -7.484375 C 3.128906 -7.347656 3.160156 -7.226562 3.171875 -7.125 C 3.179688 -7.03125 3.1875 -6.984375 3.1875 -6.984375 L 3.1875 -6.0625 C 3.40625 -6.664062 3.742188 -7.140625 4.203125 -7.484375 C 4.671875 -7.828125 5.125 -8 5.5625 -8 C 6 -8 6.304688 -7.898438 6.484375 -7.703125 C 6.660156 -7.515625 6.75 -7.289062 6.75 -7.03125 C 6.75 -6.789062 6.65625 -6.582031 6.46875 -6.40625 C 6.289062 -6.226562 6.066406 -6.140625 5.796875 -6.140625 L 5.328125 -7.21875 C 5.054688 -7.21875 4.753906 -7.085938 4.421875 -6.828125 C 4.085938 -6.578125 3.796875 -6.191406 3.546875 -5.671875 C 3.304688 -5.160156 3.1875 -4.507812 3.1875 -3.71875 L 3.1875 0 L 1.609375 0 Z M 1.609375 -7.21875 "/></g></g></g></svg>